<?xml version="1.0" encoding="utf-8"?>
<!-- Generator: Adobe Illustrator 26.0.3, SVG Export Plug-In . SVG Version: 6.00 Build 0)  -->
<svg version="1.1" id="Layer_1" xmlns="http://www.w3.org/2000/svg" xmlns:xlink="http://www.w3.org/1999/xlink" x="0px" y="0px"
	 viewBox="0 0 276 37" style="enable-background:new 0 0 276 37;" xml:space="preserve">
<style type="text/css">
	.st0{enable-background:new    ;}
	.st1{fill:#E97A25;}
</style>
<g class="st0">
	<path class="st1" d="M7.2,34H2.2V2.5h4.9V16h5.6V2.5h5V34h-5V20.5H7.2V34z"/>
	<path class="st1" d="M22.4,10.1c0-5,2.7-7.9,7.5-7.9s7.5,2.9,7.5,7.9v16.4c0,5-2.7,7.9-7.5,7.9s-7.5-2.9-7.5-7.9V10.1z M27.3,26.8
		c0,2.2,1,3.1,2.6,3.1c1.6,0,2.6-0.9,2.6-3.1v-17c0-2.3-1-3.1-2.6-3.1c-1.6,0-2.6,0.9-2.6,3.1V26.8z"/>
	<path class="st1" d="M41.9,2.5h4.9v27H55V34H41.9V2.5z"/>
	<path class="st1" d="M58.6,2.5h4.9v27h8.1V34H58.6V2.5z"/>
	<path class="st1" d="M91.2,34h-5l-0.9-5.7h-6.1L78.4,34h-4.5l5-31.5h7.2L91.2,34z M79.9,24h4.8L82.3,8.1L79.9,24z"/>
	<path class="st1" d="M99.2,11.2V34h-4.5V2.5h6.2l5.1,18.9V2.5h4.4V34h-5.1L99.2,11.2z"/>
	<path class="st1" d="M115.4,2.5h7.8c5,0,7.4,2.7,7.4,7.8v15.9c0,5-2.4,7.8-7.4,7.8h-7.8V2.5z M120.3,7v22.5h2.8
		c1.6,0,2.5-0.8,2.5-3.1V10.1c0-2.2-0.9-3.1-2.5-3.1H120.3z"/>
	<path class="st1" d="M150.9,28.2l3.8-25.7h4.5L154.4,34H147l-4.9-31.5h5L150.9,28.2z"/>
	<path class="st1" d="M167.8,15.8h6.8v4.5h-6.8v9.2h8.5V34h-13.5V2.5h13.5V7h-8.5V15.8z"/>
	<path class="st1" d="M191.1,34c-0.3-0.8-0.5-1.3-0.5-3.9v-4.9c0-2.9-1-4-3.2-4h-1.7V34h-4.9V2.5h7.5c5.1,0,7.3,2.4,7.3,7.2v2.5
		c0,3.2-1,5.4-3.2,6.4c2.5,1,3.3,3.4,3.3,6.7v4.9c0,1.5,0,2.7,0.5,3.8H191.1z M185.7,7v9.7h1.9c1.8,0,3-0.8,3-3.3v-3.1
		c0-2.3-0.8-3.2-2.5-3.2H185.7z"/>
	<path class="st1" d="M205.2,34h-4.9V2.5h4.9V16h5.6V2.5h5V34h-5V20.5h-5.6V34z"/>
	<path class="st1" d="M225.5,2.5v24.3c0,2.2,1,3.1,2.6,3.1c1.6,0,2.6-0.8,2.6-3.1V2.5h4.7v24c0,5-2.5,7.9-7.4,7.9
		c-4.9,0-7.4-2.9-7.4-7.9v-24H225.5z"/>
	<path class="st1" d="M244.8,2.5v24.3c0,2.2,1,3.1,2.6,3.1c1.6,0,2.6-0.8,2.6-3.1V2.5h4.7v24c0,5-2.5,7.9-7.4,7.9
		c-4.9,0-7.4-2.9-7.4-7.9v-24H244.8z"/>
	<path class="st1" d="M269.6,34c-0.3-0.8-0.5-1.3-0.5-3.9v-4.9c0-2.9-1-4-3.2-4h-1.7V34h-4.9V2.5h7.5c5.1,0,7.3,2.4,7.3,7.2v2.5
		c0,3.2-1,5.4-3.2,6.4c2.5,1,3.3,3.4,3.3,6.7v4.9c0,1.5,0,2.7,0.5,3.8H269.6z M264.2,7v9.7h1.9c1.8,0,3-0.8,3-3.3v-3.1
		c0-2.3-0.8-3.2-2.5-3.2H264.2z"/>
</g>
</svg>
